{
	"asset":{
		"generator":"Khronos glTF Blender I/O v3.6.28",
		"version":"2.0"
	},
	"scene":0,
	"scenes":[
		{
			"name":"Scene",
			"nodes":[
				0
			]
		}
	],
	"nodes":[
		{
			"mesh":0,
			"name":"CU3D Cube",
			"rotation":[
				0,
				-0.7071068286895752,
				0,
				0.7071068286895752
			],
			"translation":[
				7.201747212093323e-05,
				8.2769929576898e-06,
				-8.962344145402312e-05
			]
		}
	],
	"materials":[
		{
			"doubleSided":true,
			"name":"Gray",
			"pbrMetallicRoughness":{
				"baseColorFactor":[
					0.1362643837928772,
					0.1362643837928772,
					0.1362643837928772,
					1
				],
				"metallicFactor":0.5,
				"roughnessFactor":0.2
			}
		},
		{
			"doubleSided":true,
			"name":"White",
			"pbrMetallicRoughness":{
				"metallicFactor":0,
				"roughnessFactor":1
			}
		},
		{
			"doubleSided":true,
			"name":"Gold",
			"pbrMetallicRoughness":{
				"baseColorFactor":[
					0.8117647059,
					0.7215686275,
					0.4862745098,
					1
				],
				"metallicFactor":0,
				"roughnessFactor":1
			}
		}
	],
	"meshes":[
		{
			"name":"CU3D Cube",
			"primitives":[
				{
					"attributes":{
						"POSITION":0,
						"NORMAL":1
					},
					"indices":2,
					"material":0
				},
				{
					"attributes":{
						"POSITION":3,
						"NORMAL":4
					},
					"indices":5,
					"material":1
				},
				{
					"attributes":{
						"POSITION":6,
						"NORMAL":7
					},
					"indices":8,
					"material":2
				}
			]
		}
	],
	"accessors":[
		{
			"bufferView":0,
			"componentType":5126,
			"count":8134,
			"max":[
				7.36808443069458,
				7.177026748657227,
				7.544734477996826
			],
			"min":[
				-7.631915092468262,
				-7.822973251342773,
				-7.455265998840332
			],
			"type":"VEC3"
		},
		{
			"bufferView":1,
			"componentType":5126,
			"count":8134,
			"type":"VEC3"
		},
		{
			"bufferView":2,
			"componentType":5123,
			"count":16464,
			"type":"SCALAR"
		},
		{
			"bufferView":3,
			"componentType":5126,
			"count":2195,
			"max":[
				7.568085193634033,
				3.2963979244232178,
				7.744734287261963
			],
			"min":[
				-6.573252201080322,
				-3.9423463344573975,
				-5.734485626220703
			],
			"type":"VEC3"
		},
		{
			"bufferView":4,
			"componentType":5126,
			"count":2195,
			"type":"VEC3"
		},
		{
			"bufferView":5,
			"componentType":5123,
			"count":3933,
			"type":"SCALAR"
		},
		{
			"bufferView":6,
			"componentType":5126,
			"count":635,
			"max":[
				7.107637882232666,
				7.377026557922363,
				6.334705829620361
			],
			"min":[
				-7.281759738922119,
				7.177026748657227,
				-6.157756805419922
			],
			"type":"VEC3"
		},
		{
			"bufferView":7,
			"componentType":5126,
			"count":635,
			"type":"VEC3"
		},
		{
			"bufferView":8,
			"componentType":5123,
			"count":1113,
			"type":"SCALAR"
		}
	],
	"bufferViews":[
		{
			"buffer":0,
			"byteLength":97608,
			"byteOffset":0,
			"target":34962
		},
		{
			"buffer":0,
			"byteLength":97608,
			"byteOffset":97608,
			"target":34962
		},
		{
			"buffer":0,
			"byteLength":32928,
			"byteOffset":195216,
			"target":34963
		},
		{
			"buffer":0,
			"byteLength":26340,
			"byteOffset":228144,
			"target":34962
		},
		{
			"buffer":0,
			"byteLength":26340,
			"byteOffset":254484,
			"target":34962
		},
		{
			"buffer":0,
			"byteLength":7866,
			"byteOffset":280824,
			"target":34963
		},
		{
			"buffer":0,
			"byteLength":7620,
			"byteOffset":288692,
			"target":34962
		},
		{
			"buffer":0,
			"byteLength":7620,
			"byteOffset":296312,
			"target":34962
		},
		{
			"buffer":0,
			"byteLength":2226,
			"byteOffset":303932,
			"target":34963
		}
	],
	"buffers":[
		{
			"byteLength":306160,
			"uri":"data:application/octet-stream;base64,"
		}
	]
}
